# xmcd
# 
# Track frame offsets:
#     187
#     24325
#     42365
#     61875
#     84487
#     104712
#     120570
#     140825
#     160500
#     181750
# 
# Disc length: 2705
# 
# Revision: 0
# Processed by: cddbd v1.5.2PL0 Copyright (c) Steve Scherf et al.
# Submitted via: BonkEnc v1.0.8
# 
DISCID=7d0a8f0a
DTITLE=Lee Ritenour - Portrait
DYEAR=1987
DGENRE=Fusion
TTITLE0=Asa
TTITLE1=Turn The Heat Up
TTITLE2=Windmill
TTITLE3=White Water
TTITLE4=Portrait
TTITLE5=G-Rit
TTITLE6=Shades In The Shade
TTITLE7=Children's Games
TTITLE8=Runaway
TTITLE9=Route 17
EXTD=YEAR: 1987
EXTT0=
EXTT1=
EXTT2=
EXTT3=
EXTT4=
EXTT5=
EXTT6=
EXTT7=
EXTT8=
EXTT9=
PLAYORDER=
